<svg id="Group_2077" data-name="Group 2077" xmlns="http://www.w3.org/2000/svg" xmlns:xlink="http://www.w3.org/1999/xlink" width="80" height="80" viewBox="0 0 80 80">
  <defs>
    <clipPath id="clip-path">
      <rect id="Settings_Background_Mask_" data-name="Settings (Background/Mask)" width="34" height="34" fill="none"/>
    </clipPath>
  </defs>
  <rect id="Rectangle_10" data-name="Rectangle 10" width="80" height="80" rx="16" fill="#05ab6e"/>
  <g id="Settings" transform="translate(23 23)">
    <rect id="Settings_Background_Mask_2" data-name="Settings (Background/Mask)" width="34" height="34" fill="none"/>
    <g id="Settings-2" data-name="Settings" clip-path="url(#clip-path)">
      <g id="Group" transform="translate(1.632 2.649)">
        <path id="Vector" d="M29.082,13.414a3.351,3.351,0,0,1-2.8-2.1c-.1-.29-.239-.58-.358-.87A3.254,3.254,0,0,1,26.4,7.066l.683-.853a.7.7,0,0,0-.051-.939L25.463,3.7a.706.706,0,0,0-.939-.051l-.853.683a3.254,3.254,0,0,1-3.379.478,9.363,9.363,0,0,0-.87-.358,3.329,3.329,0,0,1-2.1-2.8L17.2.631A.7.7,0,0,0,16.5,0H14.285a.7.7,0,0,0-.7.631l-.119,1.024a3.424,3.424,0,0,1-2.133,2.782,9.363,9.363,0,0,0-.87.358,3.254,3.254,0,0,1-3.379-.478l-.853-.683a.727.727,0,0,0-.939.068l-1.57,1.57a.706.706,0,0,0-.051.939l.683.853a3.286,3.286,0,0,1,.461,3.379,9.363,9.363,0,0,0-.358.87,3.351,3.351,0,0,1-2.8,2.1c-.563.068-1.024.119-1.024.119a.7.7,0,0,0-.631.7v2.219a.7.7,0,0,0,.631.7l1.024.119a3.351,3.351,0,0,1,2.8,2.1c.1.29.239.58.358.87a3.254,3.254,0,0,1-.478,3.379l-.683.853a.7.7,0,0,0,.051.939l1.57,1.57a.706.706,0,0,0,.939.051l.853-.683a3.254,3.254,0,0,1,3.379-.478,9.363,9.363,0,0,0,.87.358,3.329,3.329,0,0,1,2.1,2.8l.119,1.024a.7.7,0,0,0,.7.631h2.219a.7.7,0,0,0,.7-.631l.119-1.024a3.351,3.351,0,0,1,2.1-2.8c.29-.1.58-.239.87-.358a3.254,3.254,0,0,1,3.379.478l.853.683a.7.7,0,0,0,.939-.051l1.57-1.57a.706.706,0,0,0,.051-.939l-.683-.853a3.32,3.32,0,0,1-.427-3.447l.068-.154a4.889,4.889,0,0,1,3.891-2.85l.188-.017a.7.7,0,0,0,.631-.7V14.234a.65.65,0,0,0-.6-.7Z" fill="none" stroke="#fff" stroke-linecap="round" stroke-linejoin="round" stroke-miterlimit="10" stroke-width="1.5" stroke-dasharray="0 0"/>
        <path id="Vector-2" data-name="Vector" d="M4.257,10.495A5.3,5.3,0,1,1,10.5,4.265,5.331,5.331,0,0,1,4.257,10.495Z" transform="translate(10.063 10.054)" fill="none" stroke="#fff" stroke-linecap="round" stroke-linejoin="round" stroke-miterlimit="10" stroke-width="1.5" stroke-dasharray="0 0"/>
      </g>
    </g>
  </g>
</svg>
